# xmcd
#
# Track frame offsets:
#	150
#	7438
#	55916
#	69316
#	114052
#	133882
#	195400
#	212092
#	262072
#
# Disc length: 3846 seconds
#
# Revision: 1
# Processed by: cddbd v1.5.2PL0 Copyright (c) Steve Scherf et al.
# Submitted via: audiograbber 1.83.01
#
DISCID=840f0409
DTITLE=Grateful Dead - 69-12-30 Boston Tea Party, Boston MA
DYEAR=1900
DGENRE=
TTITLE0=Intro
TTITLE1=Good Lovin
TTITLE2=Mama Tried
TTITLE3=New Speedway Boogie
TTITLE4=Casey Jones
TTITLE5=Black Peter
TTITLE6=Me and My Uncle
TTITLE7=In The Midnight Hour
TTITLE8=Cumberland Blues
EXTD=
EXTT0=
EXTT1=
EXTT2=
EXTT3=
EXTT4=
EXTT5=
EXTT6=
EXTT7=
EXTT8=
PLAYORDER=
